<svg width="10" height="10" viewBox="0 0 10 10" fill="none" xmlns="http://www.w3.org/2000/svg">
<path d="M2.42236 6.55363e-06H9.17783C9.3829 -0.000840781 9.58035 0.080508 9.72523 0.226266C9.87014 0.37117 9.95149 0.56776 9.95149 0.772825V7.47059C9.95149 7.67566 9.8693 7.87226 9.72439 8.01715C9.57948 8.1629 9.3829 8.24425 9.17783 8.24425C8.75073 8.24425 8.40501 7.89766 8.40501 7.47059V2.69137L1.32002 9.77375C1.01836 10.0754 0.52857 10.0754 0.226883 9.77375C-0.0756278 9.47209 -0.0756278 8.9823 0.226883 8.68061L7.3635 1.544L2.42245 1.54315C1.99535 1.54315 1.64963 1.1974 1.64963 0.77033C1.65132 0.344102 1.99698 6.55363e-06 2.42236 6.55363e-06Z" fill="white"/>
</svg>
